<svg width="32" height="43" viewBox="0 0 32 43" fill="none" xmlns="http://www.w3.org/2000/svg">
<rect y="7" width="32" height="32" rx="4" fill="#FF7D1B"/>
<rect y="7" width="32" height="32" rx="4" fill="black"/>
<path d="M16.6836 24H14.1758L14.0117 22.5586C13.582 23.0898 13.0469 23.5039 12.4062 23.8008C11.7656 24.0898 11.0547 24.2344 10.2734 24.2344C9.44531 24.2344 8.70703 24.0742 8.05859 23.7539C7.41016 23.4258 6.89844 22.9805 6.52344 22.418C6.15625 21.8555 5.97266 21.2148 5.97266 20.4961C5.97266 19.7383 6.17188 19.0742 6.57031 18.5039C6.97656 17.9258 7.52734 17.4727 8.22266 17.1445C8.92578 16.8164 9.72656 16.6523 10.625 16.6523C11.1719 16.6523 11.7188 16.7148 12.2656 16.8398C12.8203 16.9648 13.332 17.1406 13.8008 17.3672V16.9922C13.8008 16.4766 13.6602 16.0312 13.3789 15.6562C13.0977 15.2812 12.7188 14.9922 12.2422 14.7891C11.7656 14.5781 11.2305 14.4727 10.6367 14.4727C10.0977 14.4727 9.55859 14.5664 9.01953 14.7539C8.48047 14.9336 7.97656 15.2031 7.50781 15.5625L6.6875 13.3008C7.4375 12.8867 8.20312 12.5742 8.98438 12.3633C9.77344 12.1523 10.543 12.0469 11.293 12.0469C12.3945 12.0469 13.3477 12.2656 14.1523 12.7031C14.957 13.1328 15.5781 13.75 16.0156 14.5547C16.4609 15.3516 16.6836 16.293 16.6836 17.3789V24ZM10.8711 21.9141C11.3789 21.9141 11.8477 21.8086 12.2773 21.5977C12.7148 21.3867 13.0703 21.0938 13.3438 20.7188C13.625 20.3359 13.7734 19.8984 13.7891 19.4062V19.2773C13.4219 19.0117 13.0078 18.8086 12.5469 18.668C12.0859 18.5195 11.6211 18.4453 11.1523 18.4453C10.4336 18.4453 9.84375 18.6094 9.38281 18.9375C8.92188 19.2578 8.69141 19.6797 8.69141 20.2031C8.69141 20.5234 8.78516 20.8164 8.97266 21.082C9.16016 21.3398 9.41797 21.543 9.74609 21.6914C10.082 21.8398 10.457 21.9141 10.8711 21.9141Z" fill="url(#paint0_linear_61521_4)"/>
<path d="M24.9531 34H13.7617V32.5117L20.0781 24.8711H14.0898V22.2812H24.5781V23.5352L18.0859 31.4102H24.9531V34Z" fill="url(#paint1_linear_61521_4)"/>
<defs>
<linearGradient id="paint0_linear_61521_4" x1="2" y1="9" x2="15.6462" y2="18.924" gradientUnits="userSpaceOnUse">
<stop/>
<stop offset="1" stop-color="white"/>
</linearGradient>
<linearGradient id="paint1_linear_61521_4" x1="14.5" y1="22" x2="40.3988" y2="43.2478" gradientUnits="userSpaceOnUse">
<stop stop-color="white"/>
<stop offset="1"/>
</linearGradient>
</defs>
</svg>
